<svg width="137" height="35" viewBox="0 0 137 35" fill="none" xmlns="http://www.w3.org/2000/svg">
<path fill-rule="evenodd" clip-rule="evenodd" d="M74.7031 20.8482V20.0893H85.2166V20.3125V20.6473V20.8705H82.7167V34.5536H82.2477L82.2029 34.375C81.9131 33.0134 80.5066 32.5446 79.7926 32.5446H79.6806H79.5247C78.3417 32.5877 77.2833 33.0865 76.1894 33.602L76.0648 33.6607C75.9533 33.7054 75.8469 33.75 75.741 33.7946C75.635 33.8393 75.5291 33.8839 75.4176 33.9286C74.2565 34.4866 73.0068 34.9777 71.4887 34.9777C63.3636 34.9777 57.4262 27.9687 57.4262 18.0804C57.4262 5.95984 65.3726 0.0892858 71.1541 0.0892858C72.4262 0.0892858 73.2523 0.334821 74.368 0.691963L74.837 0.825892C74.9434 0.861437 75.055 0.899242 75.1702 0.938591L75.1716 0.939049C75.4185 1.02313 75.6869 1.11425 75.9753 1.20536L76.4218 1.31696C76.7345 1.38393 77.1363 1.45089 77.6048 1.47321C78.5648 1.49553 79.6806 1.25 80.1496 0.133928L80.2163 0H80.5957H80.7077V12.2768H80.5957H80.1944L80.1496 12.0982C78.0958 3.92857 75.5734 0.892858 71.1765 0.870538H71.1317C67.5155 0.870538 66.3101 3.19196 65.6629 4.44197C63.9441 7.76784 63.5871 15.3571 63.5871 17.6786C63.5871 24.1741 64.1672 26.9643 65.2611 29.8661C66.3773 32.8348 68.3191 34.2634 71.2433 34.2188C73.9443 34.1741 77.4042 33.0134 77.4042 27.8125V20.8482H74.7031ZM135.707 22.2768V22.0759H136.354V34.3527H112.225V33.5491H115.171V1.7634H111.89H109.123V25.7366C109.189 29.933 106.399 35 100.305 35C91.2208 35 88.1179 30.2679 88.1179 24.1518V1.7634H84.9931V1.31697V0.982155H96.7116V1.31697V1.7634H93.6983V26.942C93.6983 27.2099 93.899 33.8616 100.506 34.1072C102.314 34.1741 104.301 33.4598 105.707 32.1205C106.868 31.0268 108.207 28.9286 108.274 25.5134V1.7634H105.685V1.31697V0.982155H111.89H112.56H112.783H134.993V12.2322H134.457L134.413 12.0536C132.347 1.59815 127.566 1.69648 122.666 1.79724C122.482 1.80102 122.298 1.80481 122.114 1.80805C121.756 1.83037 121.176 1.83037 120.819 1.83037V16.9197H121.065H121.092C123.788 16.9197 127.071 16.9198 127.783 10.3795L127.806 10.1786H128.341V24.5759H127.806L127.783 24.375C127.263 17.6608 124.201 17.6926 121.491 17.7208L121.439 17.7214C121.373 17.7221 121.308 17.7227 121.243 17.7232H120.797V33.5714H121.065C121.162 33.5714 121.277 33.5728 121.408 33.5743C123.295 33.5959 128.527 33.656 132.158 30.3795C134.368 28.3928 135.551 25.6697 135.707 22.2768ZM40.1946 0.178589C33.3419 0.178589 25.8197 7.03126 25.8197 17.5C25.8197 27.9688 33.5875 34.9107 40.1946 34.9107C46.8018 34.9107 54.5697 27.9688 54.5697 17.5C54.5473 7.03126 47.0475 0.178589 40.1946 0.178589ZM48.1857 16.2054V16.4286V16.5848V16.7188V16.9197V16.9866V17.1875V17.2322V17.4554V17.634C48.1857 19.5759 48.007 27.0536 46.0429 30.7813C44.9268 32.9464 42.7616 34.0849 40.15 34.0849C37.5384 34.0849 35.3509 32.9464 34.2571 30.7813C32.2929 27.0536 32.1366 19.5759 32.1366 17.634V17.4554V17.2322V17.1875V16.9866V16.9197V16.7188V16.5848V16.4286V16.2054V16.1161C32.2036 13.125 32.583 7.52233 34.2571 4.24109C35.5964 1.51787 38.3196 0.937518 40.15 0.937518C42.0027 0.937518 44.7036 1.51787 46.0429 4.24109C47.7167 7.52233 48.0742 13.125 48.1633 16.1161C48.1857 16.1384 48.1857 16.183 48.1857 16.2054ZM22.3371 0.982155H28.4755H28.6987V1.74108H25.9754H25.6853L15.8862 34.5313H15.7076L3.38616 1.74108H3.07366H0.171875V1.29465V0.982155H11.2656V1.29465V1.74108H8.92186H8.76562L17.5603 26.1161L24.837 1.74108H22.1139V0.982155H22.3371Z" fill="black"/>
</svg>
