<svg width="105" height="35" viewBox="0 0 105 35" fill="none" xmlns="http://www.w3.org/2000/svg">
<path d="M8.49075 34.5373H7.11303V17.3878H7.71754C10.0653 17.3878 11.3024 19.8698 11.3024 23.6558H11.6961V10.4467H11.3024C11.3024 13.6719 10.2059 16.9671 7.71754 16.9671H7.11303V0.46274H8.88439C11.6539 0.46274 14.7046 2.69231 14.7046 8.65184H15.0982V0H0.604004V0.46274H2.90958V34.5373H0.604004V35H15.1685V25.8574H14.7748C14.7748 32.3077 11.4711 34.5373 8.49075 34.5373ZM38.3929 34.5373H36.6918V0.46274H39.3208V0H29.8735V0.46274H32.5025V34.5092H29.8735V34.972H44.9301V25.7873H44.4661C44.3677 31.8449 41.8372 34.5373 38.3929 34.5373ZM69.5463 34.5373H67.8452V0.46274H70.4741V0H61.0269V0.46274H63.6558V34.5092H61.0269V34.972H76.0834V25.7873H75.6195C75.507 31.8449 72.9906 34.5373 69.5463 34.5373ZM103.778 25.8574V25.8153C103.778 32.2656 100.475 34.4952 97.4943 34.4952H96.1025V17.3878H96.707C99.0548 17.3878 100.292 19.8698 100.292 23.6558H100.686V10.4467H100.292C100.292 13.6719 99.1954 16.9671 96.707 16.9671H96.1025V0.46274H97.8739C100.686 0.46274 103.694 2.69231 103.694 8.65184H104.088V0H89.6076V0.46274H91.9131V34.5373H89.6076V35H104.172V25.8574H103.778Z" fill="black"/>
</svg>
