<svg width="191" height="35" viewBox="0 0 191 35" fill="none" xmlns="http://www.w3.org/2000/svg">
<path d="M68.7273 13.5122V34.1886L76.1983 34.1855L76.1825 9.49895L68.7273 13.5122ZM76.3734 3.11792C76.0899 2.31124 75.4909 1.53669 74.7388 1.00378C73.0387 -0.026567 70.5967 0.268536 69.2883 1.66638C68.2984 2.5958 67.8245 4.15162 68.0794 5.63936C68.2801 7.03025 69.4134 8.14617 70.3746 8.5935C71.9591 9.23069 74.3157 9.10076 75.7527 7.3184C76.5667 6.3384 76.829 4.56994 76.3734 3.11432V3.11792ZM31.5303 13.5156C31.1502 11.9748 29.8477 10.6463 28.3624 10.2934C24.928 9.44525 21.8023 10.7606 19.9961 13.8123L19.8264 14.0964L19.7066 13.7893C18.8065 11.5313 17.3832 10.2805 15.476 10.0745C12.3015 9.57902 9.85162 10.7932 7.51561 14.0147L7.22305 14.4198V9.73867C6.78419 9.96378 0 13.4338 0 13.4338V34.2166H7.22305L7.23784 18.657C7.23784 17.442 8.4377 16.3748 9.639 16.4143C10.7646 16.451 11.896 17.5183 11.896 18.657L11.8996 34.1994H19.4372C19.4372 33.916 19.424 18.657 19.424 18.657C19.4369 17.4279 20.7284 16.3594 21.96 16.4143C23.0864 16.4644 24.1622 17.5329 24.1622 18.657V34.1931H31.742L31.7291 16.1921C31.7291 15.4506 31.7291 14.3767 31.5303 13.5156ZM52.6382 31.279C51.9915 31.2164 51.8134 29.8387 51.8134 29.8387C51.8134 29.8258 50.4389 21.6324 50.4389 21.6324C50.4389 21.6427 50.1139 20.0399 50.1139 20.0399C49.7798 18.3355 49.4319 16.5699 48.7854 14.9477C46.6732 10.029 40.6126 9.2199 36.1491 10.5485C35.4332 10.7669 34.7552 11.1356 34.7552 11.1356V14.1844C36.5904 13.3844 38.3813 13.3355 39.8303 14.0274C41.7148 14.9441 42.2463 17.2776 42.3441 18.2434C42.3441 18.26 42.5095 19.3234 42.5095 19.3234C40.3324 19.6533 37.6275 20.1934 35.632 21.6063C33.4031 23.2026 32.23 25.7461 32.4903 28.4028C32.5715 31.2289 34.7486 33.4912 36.8509 34.2749C39.6451 35.2666 43.48 35.1065 45.7609 32.4693C45.774 32.4561 46.0401 32.1574 46.0401 32.1574L46.6859 32.789C48.3499 34.5417 50.1728 34.4865 52.285 34.4242L53.4054 34.4017L53.4047 31.3946C53.4047 31.3946 52.6577 31.2864 52.6382 31.279ZM43.0605 22.9406L44.4248 29.5858C40.9106 33.6564 35.1223 26.5123 43.0605 22.9406ZM66.9303 9.52196C63.6357 9.52196 61.8383 13.3607 61.8192 13.4034L61.5073 14.1412V13.6704L61.5045 9.49895L54.1705 13.5103L54.1771 34.2468L61.5364 34.2442V20.9718L61.5658 20.4762C61.6307 19.3824 61.6923 18.253 62.2027 17.3001C63.304 15.1622 65.855 15.2078 67.6386 15.4394L68.9315 9.86789C68.9315 9.86789 68.1192 9.52508 66.9303 9.52196ZM172.022 9.86812C172.022 9.86812 171.21 9.52556 170.021 9.5222C166.726 9.5222 164.93 13.3609 164.91 13.4038L164.598 14.1417V13.6704L164.595 9.49895L157.261 13.5108L157.268 34.2471L164.627 34.2442V20.9718L164.656 20.4762C164.721 19.3824 164.783 18.2533 165.293 17.3001C166.395 15.1625 168.945 15.2078 170.729 15.4396L172.022 9.86812ZM156.555 2.87867C156.272 2.07199 155.673 1.29696 154.92 0.764289C153.221 -0.266533 150.778 0.0290494 149.47 1.42665C148.48 2.35607 148.006 3.91261 148.261 5.39963C148.462 6.79052 149.595 7.90717 150.556 8.35425C152.141 8.99145 154.497 8.86152 155.935 7.07891C156.749 6.09891 157.011 4.33021 156.555 2.87484V2.87867ZM182.186 31.0848C179.271 30.8696 177.888 25.4561 177.888 25.4561L190.555 21.3452C190.555 21.3452 190.317 15.7858 187.26 12.7683C184.462 10.0067 180.218 9.18443 176.312 10.8019C173.989 11.7056 171.841 14.1338 170.844 16.9834C168.897 22.4082 170.055 28.4778 173.727 32.0838C177.115 35.3428 182.387 35.2822 186.192 34.1368C186.177 34.1401 188.109 33.3083 188.109 33.3083L188.106 29.8644C188.106 29.8644 185.793 31.3497 182.186 31.0846V31.0848ZM177.714 21.9896C177.513 19.6554 177.8 17.1604 178.36 16.0152C178.926 14.8515 179.567 14.403 180.353 14.3076C183.712 13.8982 184.084 20.0872 184.084 20.0872L177.714 22.0043C177.718 22.0081 177.714 21.9863 177.714 21.9896ZM148.909 13.5122V34.1886L156.379 34.1855L156.364 9.49895L148.909 13.5122ZM94.4306 12.7683C91.6323 10.0064 87.3879 9.18443 83.4829 10.8021C81.159 11.7059 79.0113 14.1336 78.0143 16.9832C76.067 22.408 77.2256 28.4776 80.8977 32.0835C84.2856 35.3438 89.5571 35.2824 93.3617 34.137C93.3474 34.1399 95.2799 33.3081 95.2799 33.3081L95.2763 29.8646C95.2763 29.8646 92.9639 31.35 89.3564 31.0844C86.4415 30.8698 85.0579 25.4565 85.0579 25.4565L97.7254 21.345C97.7254 21.345 97.4873 15.7858 94.4306 12.7683ZM84.8846 22.0045C84.8884 22.0081 84.8846 21.986 84.8846 21.9901C84.6835 19.6561 84.9705 17.1606 85.5301 16.0149C86.0967 14.8513 86.7376 14.4033 87.5235 14.3079C90.8828 13.8984 91.2548 20.0869 91.2548 20.0869L84.8846 22.0045ZM113.526 30.2667C111.567 29.2433 109.929 27.7402 109.719 23.4273C109.475 18.404 110.469 14.8748 113.14 13.8519C115.166 13.0757 117.947 14.788 117.947 14.788L117.975 10.7283C117.975 10.7283 114.161 8.87134 109.881 10.2447C106.016 11.4856 103.525 14.5114 102.642 19.4598C101.998 23.0643 102.509 27.0457 104.286 30.1756C106.333 33.5638 110.214 35.3265 114.641 34.7227C115.846 34.5582 118.354 33.7822 118.354 33.7822L118.319 30.031C118.319 30.031 115.546 31.3224 113.526 30.2667ZM147.376 31.0388C146.73 30.9765 146.552 29.5993 146.552 29.5993C146.552 29.5863 145.178 21.393 145.178 21.393C145.178 21.4025 144.853 19.8005 144.853 19.8005C144.518 18.096 144.17 16.3304 143.524 14.7077C141.412 9.78902 135.351 8.98066 130.888 10.3087C130.172 10.5269 129.493 10.8961 129.493 10.8961V13.9444C131.329 13.1445 133.12 13.0958 134.568 13.7874C136.453 14.7046 136.985 17.0376 137.083 18.0042C137.083 18.0202 137.248 19.0842 137.248 19.0842C135.071 19.4133 132.366 19.9534 130.371 21.3671C128.142 22.9629 126.969 25.5062 127.229 28.1628C127.31 30.9894 129.487 33.2512 131.589 34.0349C134.384 35.0274 138.218 34.867 140.5 32.2293C140.512 32.2163 140.779 31.9181 140.779 31.9181L141.425 32.5491C143.088 34.3022 144.911 34.2471 147.023 34.1847L148.144 34.1617L148.143 31.1541C148.143 31.1541 147.396 31.0467 147.376 31.0388ZM137.799 22.7011L139.163 29.3463C135.649 33.4169 129.86 26.2731 137.799 22.7011ZM119.08 34.1433H126.422V2.06744L119.08 6.01669V34.1433Z" fill="black"/>
</svg>
