<svg width="149" height="35" viewBox="0 0 149 35" fill="none" xmlns="http://www.w3.org/2000/svg">
<path d="M134.646 12.7954C138.683 12.7954 142.249 14.4918 142.845 17.518H126.484C127.125 14.4468 130.565 12.7954 134.646 12.7954ZM52.292 30.9006C61.087 30.9006 66.9121 27.5977 66.9121 21.6916C66.9121 13.6301 56.3734 13.5829 50.6406 13.3084C48.7146 13.2161 41.1121 13.2161 41.1121 10.235C41.1121 7.30104 46.8449 6.24582 50.6878 6.24582C56.3734 6.24582 60.9048 7.98952 63.4742 9.96047L66.1336 6.24582C62.878 3.99814 58.0158 2.07219 50.5956 2.07219C42.4868 2.02719 35.8382 4.63937 35.8382 10.5927C35.8382 17.599 45.6434 17.7385 50.6406 18.013C53.1627 18.1975 61.8205 17.8285 61.8205 21.8199C61.8205 25.2128 57.2801 26.6347 52.292 26.6347C43.6343 26.6347 38.8194 23.5163 37.5797 22.5084L34.873 26.6347C39.7824 30.1199 45.0112 30.9006 52.292 30.9006ZM77.2685 30.8534C79.8357 30.8534 83.5976 29.8904 83.5976 29.8904L82.4051 25.6245C82.4051 25.6245 80.342 26.4502 78.2315 26.4502C76.2133 26.4502 75.5248 25.9463 75.5248 24.2498L75.4798 13.1621H82.3129V8.98849H75.4798V3.76189H70.4805V8.99074H66.9031V13.1621H70.4805V24.3511C70.4805 29.0737 72.6809 30.8534 77.2685 30.9006V30.8534ZM97.7205 35L112.23 8.98849H106.727L98.1142 24.846L89.8232 8.98849H83.8609L95.2793 29.8454L92.2891 35H97.7205ZM113.789 30.1199H118.879V0H113.789V30.1199ZM126.448 21.5904H148.578C148.533 12.4736 142.341 8.43726 134.646 8.39226C126.439 8.34726 120.944 12.9326 120.944 19.6284C120.944 26.3242 125.896 30.8556 134.646 30.8556C141.158 30.8106 144.771 29.3887 147.752 27.0037L145.138 23.5636C143.534 24.9383 140.782 26.4075 134.646 26.4075C131.161 26.4525 127.08 25.0305 126.448 21.5904ZM0.354492 30.0749H5.4641V0H0.354492V30.0749ZM27.914 30.0749H33.784V17.2885C33.739 10.8222 30.5284 8.07052 22.2374 8.07052C17.9715 8.07052 15.1838 9.40023 13.8091 10.1337V8.6195H8.25852V30.0726H13.9914V15.4548C14.4953 14.9958 17.661 13.0699 22.0079 13.0699C26.96 13.0699 27.9702 14.4446 27.9702 18.985L27.914 30.0749Z" fill="black"/>
</svg>
