<svg width="241" height="29" viewBox="0 0 241 29" fill="none" xmlns="http://www.w3.org/2000/svg">
<path d="M31.5716 27.9209H40.3297L45.0716 1.07951H36.2652L34.5232 10.6864H26.9749L28.7168 1.07951H19.9103L15.2168 27.9209H23.9749L25.7652 17.8795H33.362L31.5716 27.9209Z" fill="black"/>
<path d="M50.0073 1.07939L47.346 15.9966C47.1041 17.1553 47.0073 18.3139 47.0073 19.3759C47.0073 27.2932 53.9267 28.5001 58.088 28.5001C66.7976 28.5001 70.5718 25.6035 71.9751 17.7828L74.9267 1.07939H66.1686L63.6525 15.1277C62.8299 19.5208 62.2976 21.7897 59.0073 21.7897C56.8783 21.7897 55.8622 20.6794 55.8622 18.3139C55.8622 17.3966 56.0073 16.3346 56.2493 14.9346L58.7654 1.03111L50.0073 1.07939Z" fill="black"/>
<path d="M121.233 27.9209H129.991L131.201 21.0174H135.314C142.959 21.0174 147.168 16.914 147.168 9.38296C147.168 4.07262 143.491 1.07951 137.055 1.07951H125.878L121.233 27.9209ZM134.926 14.4037H132.41L133.572 8.07951H135.943C137.878 8.07951 138.894 9.04503 138.894 10.783C138.894 13.0519 137.394 14.4037 134.926 14.4037Z" fill="black"/>
<path d="M164.298 0.500092C154.765 0.500092 149.056 6.63113 149.056 17.0104C149.056 24.1553 153.556 28.5001 161.201 28.5001C170.733 28.5001 176.443 22.3691 176.443 11.9897C176.443 4.79664 171.894 0.500092 164.298 0.500092ZM161.733 21.5484C159.459 21.5484 158.152 19.907 158.152 17.2035C158.152 16.1897 158.249 15.2725 158.443 14.2587C159.12 10.7346 160.233 7.50009 163.814 7.50009C166.088 7.50009 167.394 9.14147 167.394 11.8449C167.394 12.8587 167.298 13.776 167.104 14.7897C166.427 18.3139 165.265 21.5484 161.733 21.5484Z" fill="black"/>
<path d="M206.926 27.9209H215.684L219.168 8.27262H225.749L227.007 1.07951H204.555L203.297 8.27262H210.313L206.926 27.9209Z" fill="black"/>
<path d="M192.362 11.0242C189.604 10.1553 188.443 9.81733 188.443 8.51388C188.443 7.64492 189.024 6.63113 190.669 6.63113C191.878 6.63113 192.943 7.30699 193.33 8.36906L201.072 6.29319C200.201 2.43113 196.959 0.500092 191.298 0.500092C180.701 0.500092 179.878 7.59664 179.878 9.72078C179.878 14.1139 182.201 16.8173 187.282 18.2173C188.637 18.6035 190.137 18.9897 190.137 20.438C190.137 21.5966 189.266 22.3208 187.766 22.3208C186.411 22.3208 184.911 21.5001 184.427 20.1484L176.83 22.2242C177.653 26.2311 181.427 28.5001 187.33 28.5001C191.83 28.5001 199.378 27.2932 199.378 19.1828C199.378 15.0794 197.056 12.4242 192.362 11.0242Z" fill="black"/>
<path d="M10.3299 27.9209L15.0718 1.07951H0.555664V27.9209H10.3299Z" fill="#0DBE98"/>
<path d="M230.781 1.07951L226.088 27.9209H240.604V1.07951H230.781Z" fill="#0DBE98"/>
<path d="M79.9103 1.07951L75.2168 27.9209H83.9749L85.3781 20.0037H92.7329L93.9426 13.2933H86.5878L87.4103 8.27262H97.7168L98.9749 1.07951H79.9103Z" fill="black"/>
<path d="M102.894 1.07951L98.2007 27.9209H106.959L108.362 20.0037H115.765L116.926 13.2933H109.572L110.394 8.27262H120.701L121.959 1.07951H102.894Z" fill="black"/>
</svg>
